<svg xmlns="http://www.w3.org/2000/svg" viewBox="0 0 512 512" xml:space="preserve"><path style="fill:#ecedef" d="M100.641 0c-14.139 0-25.6 11.461-25.6 25.6v460.8c0 14.139 11.461 25.6 25.6 25.6h375.467c14.139 0 25.6-11.461 25.6-25.6V85.333L416.375 0z"/><path style="fill:#d9dcdf" d="M441.975 85.333h59.733L416.375 0v59.733c0 14.139 11.461 25.6 25.6 25.6"/><path style="fill:#c6cacf" d="M399.308 42.667H75.041v153.6h324.267a8.533 8.533 0 0 0 8.533-8.533V51.2a8.533 8.533 0 0 0-8.533-8.533"/><path style="fill:#ffc44f" d="M382.241 179.2H18.843c-7.602 0-11.41-9.191-6.034-14.567L75.041 102.4 12.809 40.167C7.433 34.791 11.241 25.6 18.843 25.6h363.398a8.533 8.533 0 0 1 8.533 8.533v136.533a8.533 8.533 0 0 1-8.533 8.534"/><path style="fill:#a1a7af" d="M416.37 332.8a8.5 8.5 0 0 1-5.458-1.978l-51.2-42.667a8.532 8.532 0 0 1 0-13.112l51.2-42.667a8.534 8.534 0 0 1 10.926 13.111L378.504 281.6l43.333 36.111a8.53 8.53 0 0 1 1.092 12.019 8.51 8.51 0 0 1-6.559 3.07"/><path style="fill:#55606e" d="M313.975 315.733a8.533 8.533 0 0 1-8.533-8.533v-25.6a8.533 8.533 0 0 1 17.066 0v25.6a8.533 8.533 0 0 1-8.533 8.533"/><path style="fill:#55606e" d="M365.175 273.067h-17.067V256a8.533 8.533 0 0 0-17.066 0v17.067h-34.133V256a8.533 8.533 0 0 0-17.066 0v17.067H245.71V256a8.533 8.533 0 0 0-17.066 0v17.067h-34.133V256a8.533 8.533 0 0 0-17.066 0v17.067h-17.067a8.533 8.533 0 0 0 0 17.066h42.667V307.2a8.533 8.533 0 0 0 17.066 0v-17.067h34.133V307.2a8.533 8.533 0 0 0 17.066 0v-17.067h93.867a8.533 8.533 0 1 0-.002-17.066"/><path style="fill:#55606e" d="M365.175 349.333a8 8 0 0 1-8-8V281.6a8 8 0 0 1 8-8 8 8 0 0 1 8 8v59.733a8 8 0 0 1-8 8"/><path style="fill:#f79f4d" d="m333.54 364.434 25.6-25.6a8.534 8.534 0 0 1 12.068 0l25.6 25.6a8.53 8.53 0 0 1 2.499 6.034V460.8a8.533 8.533 0 0 1-8.533 8.533h-51.2a8.533 8.533 0 0 1-8.533-8.533v-90.332c0-2.263.899-4.434 2.499-6.034"/><path style="fill:#ffc44f" d="M339.575 460.8v-90.333l25.6-25.6 25.6 25.6V460.8z"/><path style="fill:#bf722a" d="M365.175 451.733a8 8 0 0 1-8-8v-17.067a8 8 0 0 1 8-8 8 8 0 0 1 8 8v17.067a8 8 0 0 1-8 8m0-51.2a8 8 0 0 1-8-8v-17.067a8 8 0 0 1 8-8 8 8 0 0 1 8 8v17.067a8 8 0 0 1-8 8"/></svg>