<svg xmlns="http://www.w3.org/2000/svg" viewBox="0 0 392.533 392.533" xml:space="preserve"><path style="fill:#56ace0" d="M337.066 90.182c3.814 0 7.434.711 10.796 1.939V75.895c0-5.947-4.848-10.796-10.796-10.796H194.973c-10.214 0-19.846-4.848-25.988-12.994l-19.459-25.988c-2.004-2.715-5.236-4.331-8.663-4.331H55.466c-5.947 0-10.796 4.848-10.796 10.796v59.604c3.426-1.228 7.046-1.939 10.796-1.939h281.6z"/><path style="fill:#fff" d="M337.066 263.564c5.947 0 10.796-4.848 10.796-10.796V122.634c0-5.947-4.848-10.796-10.796-10.796h-281.6c-5.947 0-10.796 4.848-10.796 10.796v130.133c0 5.947 4.848 10.796 10.796 10.796z"/><path style="fill:#ffc10d" d="M181.786 341.98h28.832v28.832h-28.832z"/><path style="fill:#194f82" d="M380.379 345.665h-148.04v-14.481c0-5.947-4.848-10.796-10.796-10.796h-14.481v-35.103h130.004c17.907 0 32.453-14.61 32.453-32.453V75.83c0-17.907-14.61-32.453-32.453-32.453H194.973c-3.426 0-6.659-1.616-8.663-4.331l-19.459-25.988C160.646 4.848 151.014 0 140.8 0H55.466C37.559 0 23.014 14.61 23.014 32.453v220.315c0 17.907 14.61 32.453 32.453 32.453H185.47v35.103h-14.48c-5.947 0-10.796 4.848-10.796 10.796v14.48H12.153c-5.947 0-10.796 4.848-10.796 10.796s4.848 10.796 10.796 10.796h148.04v14.545c0 5.947 4.848 10.796 10.796 10.796h50.554c5.947 0 10.796-4.848 10.796-10.796v-14.481h148.04c5.948 0 10.796-4.848 10.796-10.796.065-5.947-4.848-10.795-10.796-10.795m-169.632 25.212h-28.832v-28.832h28.832zM44.67 32.453c0-5.947 4.848-10.796 10.796-10.796H140.8c3.426 0 6.659 1.616 8.663 4.331l19.459 25.988c6.077 8.145 15.838 12.994 25.988 12.994h142.093c5.947 0 10.796 4.848 10.796 10.796v16.226c-3.426-1.228-7.046-1.939-10.796-1.939H55.466c-3.814 0-7.434.711-10.796 1.939zm0 220.315V122.634c0-5.947 4.848-10.796 10.796-10.796h281.6c5.947 0 10.796 4.848 10.796 10.796v130.133c0 5.947-4.848 10.796-10.796 10.796h-281.6c-5.947.001-10.796-4.848-10.796-10.795"/><path style="fill:#ffc10d" d="M66.262 133.43v19.653h62.772c5.947 0 10.796 4.848 10.796 10.796s-4.848 10.796-10.796 10.796H66.262v26.57h32.84c5.947 0 10.796 4.848 10.796 10.796s-4.848 10.796-10.796 10.796h-32.84v18.941h259.943V133.43z"/></svg>